# xmcd CD database file
#
# Track frame offsets:
#	150
#	19614
#	47913
#	60335
#	90678
#	104924
#	127989
#	143283
#	158619
#	176045
#	191979
#	219608
#	242041
#	258579
#	278813
#
# Disc length: 4300 seconds
#
# Revision: 0
# Processed by: cddbd v1.5.2PL0 Copyright (c) Steve Scherf et al.
# Submitted via: CDex 1.70beta2
#
DISCID=d610ca0f
DTITLE=Blue Note - Best Blue Note 100 Disc8 Big Hits
DYEAR=2009
DGENRE=Jazz
TTITLE0=The Man I Love
TTITLE1=Señor Blues
TTITLE2=Dat Dere
TTITLE3=Climb That Road (Seven Steps)
TTITLE4=The Nearness Of You
TTITLE5=Feel Like Makin' Love
TTITLE6=Devil May Care
TTITLE7=Cherokee
TTITLE8=I Feel In Love Too Easily
TTITLE9=Sandalia Dela
TTITLE10=Close Your Eyes
TTITLE11=My Hour Of Need
TTITLE12=At Last
TTITLE13=Walk Softly
TTITLE14=Spain
EXTD=YEAR: 2009
EXTT0=
EXTT1=
EXTT2=
EXTT3=
EXTT4=
EXTT5=
EXTT6=
EXTT7=
EXTT8=
EXTT9=
EXTT10=
EXTT11=
EXTT12=
EXTT13=
EXTT14=
PLAYORDER=
